<?xml version="1.0" encoding="utf-8"?>
<!-- Generator: Adobe Illustrator 26.5.0, SVG Export Plug-In . SVG Version: 6.00 Build 0)  -->
<svg version="1.1" id="Layer_1" xmlns="http://www.w3.org/2000/svg" xmlns:xlink="http://www.w3.org/1999/xlink" x="0px" y="0px"
	 viewBox="0 0 617.2 968.4" style="enable-background:new 0 0 617.2 968.4;" xml:space="preserve">
<style type="text/css">
	.st0{fill:#7C7C7C;stroke:#FFFFFF;stroke-width:2;stroke-linecap:round;stroke-linejoin:round;}
</style>
<g id="5">
	<path id="KOR2505" class="st0" d="M390.8,789.2h0.7l3-1.4l0.4,0.4l-0.3,1l-1.5,1.9l-1.7,0.6l-1.5-0.3l-1.2,0.2l-1.7,0.8l-0.8,0.8
		l-1,0.2l-0.1-0.7l0.5-1.3l-0.1-1l-0.7-0.7l-1.3-0.6l0.5-1.9v-1l0.7-0.6l1-0.3l5.1,2.7L390.8,789.2L390.8,789.2z M407.8,752.4
		l1.1,0.6l1.5-0.6l2.4-0.7l2.8-0.1l1.6,1.5l0.4,2.5l-0.9,1.5l0.6,0.9l-0.7,1.2l-1.6-0.6l-0.6,0.8l1.3,0.3l1.3,1.1l-0.6,1.1l-1.6,2
		l-2.6,0.1l-1.2-1.5l-0.6-1.5l-1.3-0.1l0.3-1.2l-0.4-1.3l-2.1-0.3l-0.7-0.6l1.5-1.2l0.3-1.4l-1.5-1.3l-2.9-0.9l-1.8,0.5h-1.1
		l-0.3-1.3l1.3-1.4l1.8-0.5l2.5,1L407.8,752.4z M386.1,756.9l-0.5,0.5l-2.4-0.8l-1.8-1.2l-1-1.6l0.2-1l1.1-1.8l2.1-1.6l2,0.5
		l2.4,2.6l0.9,1.5l-0.7,1.1h-1.7l-0.8,0.4L386.1,756.9L386.1,756.9z M350,743.5l0.8,0.6l0.9-2.1l1.9-3l1.5-0.2l0.5,1.3l1.6,1.3
		l0.3,2.3l0.9,3.2l1.6,1.8l0.9,1.3l-1.7,0.4l-7.2-1.9l-3.9,1.3l-2.3-0.3l-2.3-1.4l-1.4-2.8l1.1-3l2.1-2.8l1.4-2.6l1.5-1.9l2.5-0.6
		l0.8,2.1l-1.1,3.1l-0.6,2.1L350,743.5L350,743.5z M339.9,752.1l1.9,3.4l3.1-0.5l3.9-1.6l3.6-0.7l5.4,0.9l1.1,0.4l0.8,2.2l-0.5,1.9
		l-0.9,2l-0.4,2.5l0.4,4l-0.1,2.3l-0.9,1l-1.3,0.7l1.4,3.9l-0.7,2l-2.4,0.4l-2.4-1.4l-2.5-1.1l-2.9,1.4l-2.6,0.3l-1.5-3.7l-1.8-7.8
		l-2.6-1.4l-2.1,1.5l-1.4,3.2l-0.5,4l-1,1.7l-2.2,0.1l-2.4-0.8l-1.4-1l-1-1.7l-0.3-3.1l-0.3-2.5l-4.4-14.2l-0.6-3.5l0.4-3.3l1.9-3.5
		l1.2-0.9l1.2-0.2l1-0.7l0.7-4.2l0.9-1.3l2.6-2l2.1-1l2.4,0.8l2.1,1.8l1.2,2.5l-0.2,2.5l-1.4,2.4l-3.6,3.8l0.7,1.3l0.7,3.4l0.9,1.7
		l1.3,1L339.9,752.1L339.9,752.1z M462.4,727l1,1.8l0.7,1.9l-0.1,2.6l-0.6,2.3l-2.5,6.5l3.2-1.1l1.5-1.1l0.5,0.4l0.2,3.3l-0.2,2.2
		l-0.7,2.5l-1.4,1.3l-2.1-0.9l0.8,2.6l2.1,4.4l0.4,2.9l-1.2,0.5l-2.8-0.9l-2.9-1.6l-1.8-1.3L456,758l-0.5,1.4l-2.8,3.2l-0.9,2.6
		l1.9,1.4l2.6,1.1l1.3,1.5l-2.4,2.1l-11.5,3.6l-3.4,0.2l5.4-3.9l-2.3-1.1l-0.8-1.7l0.1-2.3l0.8-2.8l-4.9,2.5l-1.5-1l-0.7-2.2
		l0.1-2.2l1-1l4-0.8l1.1-2.2l0.1-3l0.8-3.4l-2.2-1.3l-1.6,2l-5.7,2.5l-2.5,2.1l-1.8-2.8l-2.2-2.5l-1.9-2.8l-0.5-3.6l1.1-2.3l2-2
		l2.4-1.6l2.1-0.9l5.9-1.2h1.7l2.6,1.1l2,1.4l2.2,1.1l2.9,0.2v-1.2l-2.9-2l-1.7-2.9l-0.8-3.3l-0.1-3l2.1,0.2l11-6.3l-1.9-3.6
		l0.9-3.5l2.5-1.9l2.8,1.1l0.7,1.6v1.8l-1,7.2l0.1,1.2L462.4,727L462.4,727z M479.5,719.4l-0.8,0.3l-0.4-0.8l-0.8-3.4l-1.2-1.3
		l-0.4-1l0.2-1.3l-0.6-1.6l-0.8-1.6l0.4-1.4l1.7-0.9l1.8-0.2l1.6,0.5l1.1,2.4l-0.1,4.9l-0.7,4L479.5,719.4L479.5,719.4z
		 M507.4,605.8l0.7,7.7l-4,8l2.4,4.8l9.8,1.5l4.1,3.2l6.8,7.8l8.1,4.5l3.7,2.8l1,5.4l3.5,3.4l4.5,1.6l0.6,0.6l-0.7,2.6l-0.3,3.5
		l-0.9,1.9l-1.1,1.6l0.9,2.6v1.1l-1.7,3.6l-2.6,5.4l-2.8,3.4l-1.8,3.8l-0.3-0.7l-3.2-3.3l-2.8-3.7l-3.7-2.9l-2.8-4l-0.9-4.2l-3.1-2
		l-4-0.2l-3.7,1.5l-3,2.2l-2.3,2.8l-1.6,11.5l-2.3,3.4l-2.4,3l-1.3,2.4l-0.8-0.7l-1.4,2.2l-4.8,8.5l-2.2,0.1l-0.2-3.9l0.2-3.7
		l-1.1-0.1l-1.3,3l-1.2,4.7l-3.9-0.5l-10.4,0.2l-0.6-3.6l-1.1-1.9l-1.4,5.4l-1.6,0.8l-3.7-1.7L463,698l-1.9-0.2l-2.4,1.8v-8.4
		l-0.7-0.7l-1.3,0.5l-1.2,1.8l-0.1,3l-2.5-2L451,691l-2.2-1.8l-3.2,1.3l0.7-2.7l-1.3-3.9l0.6-1.5l-1.6-5l-0.9-0.6l-1.8,1.7l-2,3.1
		v2.1l2,4.2l1.1,5.1l0.7,1.8l1.3,2.3l2.7,3.6l0.4,1.8l-0.8,2.5l1.3,0.2l3,1.2l-1.4,0.9l-1.3,0.4H445l-1.6-0.4l-0.5-1l-0.1-1.3
		l-0.5-1.3l-1.5-1.6l-1.1-0.9l-8.6-3l-2.4-0.1l-5.2,1l-1.4,0.7l0.1,1.3l1.8,2.6l-2.9,0.6l-5.5,2.8l-6.2,1.7l-0.8,2.4l-0.3,2.7
		l-1.7,1.7v1.3l15.8-8.4l2.7-0.2l0.5,3.4l1,2.5l0.3,2.3l-1.3,2.5l-2,1.2l-3.1,0.5l-3.1-0.2l-2-0.8l-1.1,1.9l0.7,0.9l1.5,0.8l1,1.7
		l0.2,2.4l-0.2,4.1l-1.1,7.9l1.4,1.3l1.4-0.4l1.1-1.6l0.5-1.9l2.1,2.6l-2.2,3.9l-4,5.2l-3.5,1.1l-4.8-0.3l0.1-3h3.1l1.3-0.3l0.8-1.2
		l-9.9-1.2l-2-0.8l-2.3-3.1l-0.3-1.6l1.6-1l3.7-1.5l-3.6-7.2l-2.6,2.6l-2.6,5l-3.7,0.2l-3.3-4.5l-1.8-1.1l-3.6-0.4l-1.6,1l-0.8,2.3
		l-0.4,3l0.1,2.9l-3.3-0.6l-7.4,0.3l-2.9-1.6l-0.3-1l-0.1-2.9l-0.1-0.7l-0.8-0.2L364,733l-2.3-0.5l-3.7-0.3l-1.3-0.7l-0.8-1.6
		l0.1-1.5l0.7-2.8l-0.3-14.3l0.3-2.3l1.2-2.5l0.7-1.8l0.2-2.4l-2.5,3l-2,3.4l-2.5,2.6l-3.8,0.3l2.9,6.9l-2,1.3l-4.3-0.1l-4.1,2.6
		l-1.6-4.6l-1-1.9l-1.8-1.4l-0.5,6.2l-1.7,5l-3.3,2.9l-4.2,0.4l-3.2-1L322,728l-1,0.9l-2.4-1.9l-1.6-0.5l-0.4-0.8v-3.6l-2.1-5.3
		l-9.9-10.7l-1.7-3.6l-1.4-4.1l-3.5-3.7l-3.9-2.8L292,688l-0.7-10.3l-1.6-5l-3.2-3.8l0.8-4.2l3.3-3.4l0.3-4.8l1-5.2l6.6-7.9l1-5.4
		l-2.3-1.5l-1.6-3.7l0.3-4.9l-1.8-4.6l-0.3-2.5l-0.6-2.1l-4-1.7l0.1-4.9l2.2-4.6l1.4-6l1.8-5.9l2.5-4.6l2-4.4l0.4-6l1.8-5.1l3.6-3.2
		l3.4-3.6l3-6.4l1.6-1l2.1,0.2l3.9-1.2l7.9-4.2l1.5-4.1l5.8-6.2l1.3,4.3l3.2,1.9l2.9,2.3l0.2,1.6l0.6,1.6l2.6,1l4.8,0.4l2,1.7
		l2.6,1.7l4.5,0.4h4.5l4.1,1.3l3,3.3l2.1,4l3.5,2.5l0.9,1.8l0.6,1.7l2.4,1.5l2.1,2.5l-0.1,4.6l-1.9,4.4l2.5,9l9.8,0.4l4.7-0.6
		l4.6,0.7l4.3,2.1l4,3l4.5,0.9l8.5-4.3l4.3,0.9l3.9-5.6l3.7-2.9l1.3,10.8l4,4.9l4.9,3.1l5.8-0.6l5.9-1.1l5.2,1.6l4.9,2.6l5.9,0.2
		l5.2-4.1l2.2-0.8l2.3-0.3l2.2-1.9l1.8-2.4l5.7-2.3l6.1,1.5l4.7,2.2L507.4,605.8L507.4,605.8z"/>
	<path id="KOR2507" class="st0" d="M521.4,706.9l-1.3,1.6l-1-0.8l-1.1-1.4l-3-1.7l-1.5-1.7l0.1-2.4l1.2-1.2l1.6,0.1l1.5,2.1l1.4,1.5
		l1.1,0.6l-1,0.8l-0.2,1.4L521.4,706.9L521.4,706.9z M537.6,686.6l-0.8,1.5l-4.2-0.1l-2.2,0.4l-1.7-0.1l-1.7,0.8l-1.9,0.2L525,692
		l1.2,1.9l0.2,2.3l-0.8,2.5l-3.5,1.7l-4.6-4l-1.3-1.5l-4.2,4.4l-1.9,3.6l-0.6,3.7l-1.2,0.9l-0.8-1.9l-1.9-2l0.5,5.7h-1.2l-0.5-1.3
		l-0.7-0.3l-3.1,2.1l-1.1-1.3l-1.3-4.4l0.6-3.9l1.2-5l0.2-2.8l1.3-2.4l2.4-3l2.3-3.4l1.6-11.5l2.3-2.8l3-2.2l3.7-1.5l4,0.2l3.1,2
		l0.9,4.2l2.8,4l3.7,2.9l2.8,3.7l3.2,3.3L537.6,686.6L537.6,686.6z"/>
	<path id="KOR2508" class="st0" d="M578.7,599.7l1.3,2.2l-0.6,4.2l-0.3,5l-1.1,7.6l-1.6,3.2l-2.6,3.5l-2.4,1.3l-1-3.4l-1-4.5l-2-3.3
		l-2.2-0.6l-1.3,3.8l2.1,0.5l1.3,1.6l0.6,2.4l0.2,2.8l-0.7,2.6l-1.6,0.6l-1.8,0.2l-1.3,1.2l0.2,1.4l0.2,3.6l0.7,3.8l-2.8,4.8
		l1.3,1.8l1,1.1l-0.2,2.6l-3.2,1.1l-3.1,1.8l-4.4,4.4l-3.7-0.1l-0.1,0.2l-0.6-0.6l-4.5-1.6l-3.5-3.4l-1-5.4l-3.7-2.8l-8.1-4.5
		l-6.8-7.8l-4.1-3.2l-9.8-1.5l-2.4-4.8l4-8l-0.7-7.7l3.8-3.1l4.1-2.4h2.4l1-2l-1.5-2.5l-0.8-2.7l5.3-4.1l6.7-2.4l5.5-0.8l5.3,1.1
		l5.6,2.4l1.4,2.4l0.1,2.9l0.4,2.6l2,1.4l2.6,0.7l14.8-2.6L578.7,599.7L578.7,599.7L578.7,599.7z"/>
	<path id="KOR2510" class="st0" d="M161.7,899.8l1.8,2.8l2.4,1.8l7.6,3.1l2.3,2.3l1.6,5.7l1.5,2.2l1.8-1.7l0.4-0.8l1.2,2.5l-0.8,0.8
		L180,919l-1.1,1.3l0.1,1.1l1,1.8v1l-0.5,1l-1.7,2.3l-2.8,3.4l-5.4,4.3l-1.7,3.5l-2.3,4.2l-0.2,1.7l-1,2.5l-3.9,0.4l-1.5,0.8
		l-4.2-0.3l-6,4.8l-16,2.9l-5.4,4.6l-6.5,1.4l-7.1-0.7l-8,1.5l-6.6-2l-15.1,0.2l-4.7,2.2l-2.7,5l-2.6,0.5l-2.5-1.2l-3.6-5.9
		l-4.8-1.6l-4.7-4.9l-1.6-5.9l2.8-7.8l2.7-4.7l1.6-1.7l5.5-3.3l4.7-8.2l4.3-1.1l2-4.3l7.4-2.6l16.2-4.6l4-3.5l15.4-1.6l10.5-4.6
		l2.6,0.7l12.7-2l7.5-0.7L161.7,899.8L161.7,899.8z"/>
</g>
<g id="4">
	<path id="KOR2499" class="st0" d="M80,598.6l0.3,1.1l-0.6,1.5l-2.9,2.5l-1.9,2.2l-1.8,1.4l-0.9,0.2l-0.7-0.7l-0.5-1.3l0.3-1.2
		l1.7-0.9l-1-0.8l1.2-1l0.6-0.8l1.5-0.4l-0.2-1.1l2.4,0.4l1.8-1.7L80,598.6z M287.6,517.9l1.3,1.6l1.5,1.4l1.3-0.3l1-1.4l2.7,1.6
		l2.4,2.8l7.1,2.4l1.4,1.8l2.6,0.7l5.1-3.1l5.8-2.6l2.3,2.2l2.3,1.2l2.1-1.8l2-2.2l6.5,11.1l-0.8,12.5l-5.8,6.2l-1.5,4.1l-7.9,4.2
		l-3.9,1.2l-2.1-0.2l-1.6,1l-3,6.4l-3.4,3.6l-3.6,3.2l-1.8,5.1l-0.4,6l-2,4.4l-2.5,4.6l-1.8,5.9l-1.4,6l-2.2,4.6l-0.1,4.9l4,1.7
		l0.6,2.1l0.3,2.5l1.8,4.6l-0.3,4.9l1.6,3.7l2.3,1.5l-1,5.4l-6.6,7.9l-1,5.2l-0.3,4.8l-3.3,3.4l-9-7.3l-10.1-3.7l-5.8,3.2l-4.6,5
		l-4.9,0.7h-5.3l-5.7,0.8l-5.9-0.1l-2.7-1.6l-2.4-1.9l-2.7,0.7h-3.3l-4.8,0.8l-4.5,2.7l-5.9-0.9l-3.8-4l0.2-6.4l-3.3-3.7l-0.9-3.6
		l1.4-5.6l-3.2-4.9l-4.7,0.3l-1.1,2l-1.6,1.5l-1,2.6l-0.4,2.7l-4.8,0.1L179,634l-4.8-4l-2.8-1.1l-2.8-0.2l-2.7,3.1l-5.3-0.5l-4,3.5
		v2.7l0.1,2.6l-1.4,2.2l-2,1.5l0.1,2l0.3,2l-1.3,2.8l-2.1,1.8l-2.6,1.3l-2.7,0.7l-2.3,1.4l-2.1,1.6l-5.3,0.8l-5.1,1.8l-4.7,1.2
		l-3.9-1.3l0.2-5.3l1-5.2l0.9-7.1l-4.5-1.2l-15.4,4.3l-3.3,1l-2.2-2.5l-0.7-2l1.1-4.6l2.7-5.7l4.3-10l3.6-5.3l5.2-1.8l5.9-1.2l5-0.3
		l2.3-1.9l2.3-3.2l3.1-0.8l2.8,3.2l2.9,3.6l2.1,0.7l-2-7.3l-1.5-3.3l-2.4-1.4l-22.4,3.7l-7.8-4.9l0.6-7.3l3.7-1.9l3.2-3.2l3-3.4
		l4.7-2.8l5.9-3.2l4.4-6.2l0.7-5.8l4.2-2.6l1-0.8l5.6-0.6l5.6,0.7l3.5,2.7l2.5,0.6l1.7,3l0.7-1.6l0.5-2.2l0.2-2.3l-3.5-2.8l-3.1-1.5
		l-3.4-2.3l-2.8-2.1l-1.4-0.8l0.4-1.7l1.3-1.8l1.3-1.1l1.4-0.3l8.9,0.6l1.9-0.2l1.4-0.7l1-1.8l0.4-1.4l0.7-1l2.2-0.4l0.7-0.6
		l-0.8-1.5l-1.7-1.4l-1.9-0.7l-0.5,0.4l-11.6,4.7l-3.9,0.2l-7.7-0.5l-7.5-0.6l-0.1-3.4l-0.5-4.6l-1.5-1.3l-4.7-1.6l-6.9,1.1
		l-0.7-5.9l14.3-1.6l7.8-1l7.9-0.4l2.6-1.6l2.7,0.8l3.3-1.7l5.8-4.4l7.4-3l3.2-2.2l0.3-2.8l-9.3,2.8l7.1-8.8l7.6-0.8l8.9-1.9
		l16.4-5.2l5.8,1.2l-1.4,8.6l3.4,5.3l4.6-0.9l4.5-1.7l8.7-1.7l2.3-0.8l2.2-1l3.3-0.7l2.2-3.3l2.6-2.7l5.1,4.5l7.1,12.8l5.2,2.6
		l2.1,0.6l0.9,1.9l-1.1,2.2l0.6,1.6l9.2,1.2l3.4-0.8l4.7-0.2l4.7-1.3l3.8-3.4L287.6,517.9L287.6,517.9z"/>
	<path id="KOR2500" class="st0" d="M179.2,668.9l8.1,3.1l3.2,8.9l-6.2,8.3l-9.8-1.6l-8.6-5.2l-4.3-9.5l3.4-3.2l5.7,1.5l4.1-1
		L179.2,668.9L179.2,668.9z"/>
	<path id="KOR2506" class="st0" d="M85.6,918.7l-0.6,0.7l0.3,1l-0.7,0.5h-1.5l-0.3,1.3v1.2l-1.1-0.2l-2.4-4l1.9-0.4l1.5,0.5
		L85.6,918.7L85.6,918.7z M179.4,915.4l-3.6,0.6l-0.4-3l1.3-0.8l1.2,0.2L179.4,915.4z M239.1,899.2l1,0.5l1-0.1l0.4,2.4l0.7,0.4
		l0.4,1.3l-0.7,0.4l-1.9-0.8l-0.9-1.4l-0.9-1.8l0.2-1.2L239.1,899.2L239.1,899.2z M236.4,898.7l0.4,0.8l-0.6,1.8l0.3,1.9l2,3.4
		l0.9,0.8l1.2,0.3l0.4,0.7l-0.2,0.9l-2.2-1.1l-2.2-0.5l-0.9-1.9l-0.4-1.6l-1.1-1l-0.3-1.3l0.2-2.5l1.1,0.1L236.4,898.7L236.4,898.7z
		 M127,891.5l-3.6-0.5l1-1.2l-0.5-1.1l0.5-0.5l1.1,0.2l1,1.6L127,891.5z M121.2,878.2l1,0.1l1.3-0.4h1.8l2.2,0.9l1.3,1.6l-0.3,0.9
		l-1.3-0.7l-0.2,0.7l-2.1-1h-1.5l-0.8,0.9l-0.6,1l-1.7,1.2l-1.6,1.4l-2.4,1.4l-3-0.1l-1.7-2.2l-0.1-2.9l1.4-2.9l2.8-1.9h2.4
		L121.2,878.2L121.2,878.2z M136.7,887.7l-1.6,0.4l-0.8-0.5l-0.3-0.9l-1.6-0.8l-0.3-2.5l1-4.5l0.3-2.4l-1-1l-0.3-0.9l1.3-1.2
		l0.1-0.7h1.3l2.7,1.4l0.4,1.9l-1.5,1.3l-0.3,1.4l1.6,2.4l0.6,0.4l0.6,0.9l-1.2,0.7l-0.2,1.1v2L136.7,887.7L136.7,887.7z
		 M151.9,875.3l-0.4,1.3l-1-1.6l-0.9-0.8l0.4-1.5l-0.1-1l2.3-1.9l1,2.6L153,874L151.9,875.3L151.9,875.3z M176.9,878.5l-1,1.8
		l-1.8,1l-2.4,0.2l-1.7-0.9l-1.4-1.3l-1.1,0.1l-0.5,1l-0.6-0.4l-0.7-2.9l1-2l0.3-1.8l0.6-1.5l1.1-1.1l2.3-1.1l2.7,0.7l1.6,2.3
		l2.4,2.5l-0.4,2.4L176.9,878.5z M124.6,876.2l-0.8,0.6l-2.4-0.6l-1.3-1.2l-0.3-0.8l-1.4-0.4l-0.2-0.6l1.3-3.1l-0.1-1.5l0.9-0.7
		l-0.9-1.9l0.5-0.4l2.5,1l3.3,0.6l2.5,1.5l0.7,0.9l0.1,1.7l-1.1,0.9l-0.5,2.2l-2.3,0.1l-1.3,0.3L124.6,876.2L124.6,876.2z
		 M24.3,864.2l-1.7,1.8l-1.2,0.4H20v-0.9l0.6-1.7l0.8-0.7L24.3,864.2L24.3,864.2z M230.9,868.9l-0.4,1l-2.9-0.6l-2.8,0.7l1.3-4.1
		l1.6-1.5l0.5-1l1.6-0.9l0.7,0.1l0.7,1.7l-0.2,2.1l-0.9,1.6L230.9,868.9L230.9,868.9z M128.2,862.4l1.4,0.6l0.8,1.6l-0.8-0.1l-1.1,1
		l-0.7-0.2l-1.7,0.5l-1-1.6l1.3-1.2L128.2,862.4L128.2,862.4z M39.9,861.8l0.9,0.6l0.6-0.2l0.2,2l-1.4,2.9l-1.1-0.4l-0.9-1l-0.8,1.8
		l-0.6-1.4l-1.8-0.9l1.1-1l1.4,0.2l1-0.2l1-0.8l-0.1-1L39.9,861.8L39.9,861.8z M19.5,860.9l0.2,2.4l-0.4,0.5l-0.6-1.5l-1.2,0.4
		l-0.5,1.1l-1.7-1.1l1.3-1.7l1.5-0.5L19.5,860.9L19.5,860.9z M274.8,860l-0.7,0.5l-1.3-1.4l1.3-0.6l0.7,0.2V860z M120.8,855.9
		l0.9,0.8l-2.1,1.1l-1.5-0.3l-1.4,0.2v-1.8l1.5,0.5L120.8,855.9z M252.8,856.3l-1.5,0.9l-0.5-3.1l2.2-0.1L252.8,856.3L252.8,856.3z
		 M245.2,853.8l0.6,1.3l1.9-0.8l0.6,0.8l-0.7,0.5l-0.4,1l-2.4,2.5L245.2,853.8z M36.6,850.2l5.5,1.1l2.3-0.4l1,0.6l-0.1,2.1l0.2,1.4
		l-0.7,1.1l-1.6,0.2l-0.9,0.7l-0.6-0.3l-0.7-1l-0.8,0.9l-1,0.2l-3.3-1.4l-1.1-1.6l-0.1-1l0.7-0.9v-1L36.6,850.2L36.6,850.2z
		 M187,851.6l-1.2,0.5l-1.1-0.1l-0.5-0.8l-0.8-0.5l-0.8-0.9l0.1-1.7l0.5-1.2l2.1-1.2l3.9-0.1l2.5,1.3l0.1,1.3l-0.8,1.1l-3.1,2.3
		L187,851.6L187,851.6z M30.8,845l2.1,0.9l1.3-0.8l3,0.4l3.2,1.8l0.3,1.1l-0.8,0.3l-3.7-1l-3.2,0.6l-2.2-0.5l-0.7-2.3L30.8,845
		L30.8,845z M106.5,845.9l-0.7,0.5l-0.9-1.2l0.2-1.1l1.6,0.7L106.5,845.9z M164.8,843.4l1.2,0.3l1.3-0.2l1.8,0.2l2.2,0.6l1.4,0.8
		l-0.3,1.4l-0.9,1.1l-0.4,2l-1,1.1l-1.3-0.3l-1.5,0.3l-1.5,1.4l-1.4,0.3l-0.8-1.1l-0.3-1.5l-0.9-1.2l-1.2-0.5l-1.6,0.2l-1.9,0.7
		h-1.5l-1.2-0.7l-3.5-1.6l-0.2-0.6l1.6-0.2l1.6-0.5l1.2-0.7l1.3,0.2l1.4,0.7l1.8-0.7l2.1-1.8l1.6-0.4L164.8,843.4L164.8,843.4z
		 M196.9,841.9l1.2,0.6l2.2-0.7l1.6-0.2l0.7,0.7l2.3,3.5L204,846l-1.4-0.7l-1.5-0.4l-1.2,0.5l1.4,1.1l-1.1,1.1l-2.8,2.2l-1.6,0.7
		l-0.2-1.7l0.8-1.2l1-0.6l-0.6-0.8l-3.4-0.7l0.4-0.8l-0.4-0.9l-1-0.7l-2.7-0.2l-1-0.4l-0.1-0.6l1.2-0.3l0.9-0.6l1.5-1.8l1.9-1.6
		l1.2,1.1l1,1.5L196.9,841.9L196.9,841.9z M149.4,848.4l2.9,2.8l0.3,1.2l0.9,2.2l-0.6,0.5l-1.5-0.4l-2.7-1.4l-0.6,0.2l-0.2,1.1
		l-0.7,0.4l-1.4-0.6l-2.4-0.6l-3-1v-1.2l1.4-1.2l-0.3-1.4l-1.4-0.3l-1.7,0.4l-2-0.6l-1.9-1.2l-1.1-1.4l-0.4-2.1l-0.2-2.4l0.1-2.4
		l0.7-2.4l1.2-1.9l1.7-0.8l3.7-0.5l1.8,0.6l1.7,1.2l1.9,2.2l1.5,3.7l0.4,3l0.5,1.5l0.9,1.1L149.4,848.4L149.4,848.4z M181.1,833
		l-0.8,3.1l-0.6,0.6l0.6,2.1l-1.2,1.2h-1.3l-0.7,1.1l-1,0.8l-1.2,0.5l-2-0.6l-1.1-0.9l-0.8-1.6l0.4-1.9l-0.3-0.7l-1,0.6l-1,1.2
		l-0.7,0.1l0.1-5.1l-0.6-0.8l1.1-0.3l1.1,0.8l3.6,0.2l1.3,0.3l1,0.9l1.4,0.4l1.3-0.1l1.1-1.3l0.7-1.8l0.5-0.2L181.1,833z
		 M232.4,837.4l-0.6,0.2l-2.3-0.7l-0.6-0.9l0.2-2.5l-1.3-0.7l-0.3-1.6l0.5-0.4l0.8,0.2l0.7,1.2l1,0.8l0.4,1.1l1.7,2.7L232.4,837.4
		L232.4,837.4z M167.5,834l0.1,1.2l-1.1,0.2l-3.3-1l-1.3,0.3l-0.8,1.2l-4.2,2l-1.5,1.9l-0.4,2.1l-0.9,0.6l-1-1.2v-2l-0.3-1.6
		l-1.5-0.7l-0.7-0.7l1.3-2.2l1.1-2.5l2.2-2.9l3.1-1.7l3.3-0.8l2,0.3l0.7,1.2l0.2,1.2l-0.9,0.9l0.2,0.4l1.4,0.9l1.2,1.4L167.5,834
		L167.5,834z M196.3,822.6l1.6,0.8l0.5-0.4l1.2,1.3l1.8,4.7l-0.7,0.9v1.4L200,832l-0.8,0.2l-0.7-3.1l-1.4,1.5l-0.8-0.6l-2.7-6.2
		l0.8-0.8L196.3,822.6L196.3,822.6z M316.8,831.9l-0.2,0.3l-1.9-1.5l-0.6-1.2l0.8-0.9l-0.8-0.8l0.9-1.6l0.4-1v-1.3l0.2-1.2l0.8-0.3
		l0.5,0.9l1.3,1l-1,4.5v1.8L316.8,831.9L316.8,831.9z M266.6,821.6l0.8,0.3l1.4-1.4l1.5-0.1l3.5,3.7l0.7,1.9v1.1l-1.2,1.3l-2.9,1.9
		l-2.5,0.8l-0.9-0.5l-0.1-1.7l-1.1-1.1l-1.6-0.5l-0.7-1l0.4-0.8l-2.7-1.9l0.5-1.4l-0.3-1.9l0.7-0.5l2.3,1.2L266.6,821.6L266.6,821.6
		z M222.9,829.2l-6.6,1.2l-2.5-0.3l-1.8-0.9l-3.8-2.6v-1.4l0.8-1.1l0.2-0.9l-0.6-0.8l-1.5-1l2.2-1.7l2.5-1l5.2-1l4.9-0.5l2.6,0.2
		l2.2,1l1.7,3.1l-0.5,3.6l-2.1,2.9L222.9,829.2L222.9,829.2z M40.4,817.5l1.7,0.6l-0.4,0.8l-1.8,1.3l-1.3,1.5l-1.1,0.5l-0.3-2.3
		l-0.7-1.4l2.1-2.1l0.4-1.2l1.4,0.3l0.9,0.8L40.4,817.5L40.4,817.5z M319.8,818.5l-0.9,0.7h-1.1l-0.9-0.4l-1.1,0.6v-1.9l1.1-1.7
		l1.5-0.7l1.3-0.2l0.4,0.4l-0.9,1.1l0.4,0.9L319.8,818.5L319.8,818.5z M210.7,812.1l-1.1,1.4l-2.1,0.8l-0.7-1.1l-0.9-0.3l-0.1-1.5
		l1.1,0.1l0.5-1l1.9,1.1l0.4-1.6l1.1,0.4L210.7,812.1L210.7,812.1z M264.6,811.5l-0.9,1.1l5,1.6l0.8,1.7l-0.3,0.6l-1.3,0.9l-1.5-0.1
		l-3.4,0.9l-1.2,0.5l-1.9-1.9l-0.1-1.2l1.3-0.8l1.2,0.1l-1-1.5l-0.4-1.5l-2.3-0.6l0.7-0.7l-0.2-0.8l0.5-1.4l1.3-1.5l2.5-0.2l1.6,1.4
		l-2,1.5l1.1,0.8L264.6,811.5L264.6,811.5z M312.9,816.8l-1.3,0.1l-0.8-1.1l-1.5-0.8l-2.3-0.8l-1.5-1.2l-0.7-1.7l-0.8-1.1l-1.3-0.7
		l-1.1-1.4l0.8-1.6l2.7-1.3l2.9-0.4l2,1.5l2.4,4.7l-0.2,2l1.3,0.3l1,0.6l0.7,1.1l-0.3,1.2L312.9,816.8L312.9,816.8z M81.3,807.3
		l1.1,0.8l0.7-0.2l3.6-2.3l0.1,1.7l4.7,7.6l0.3,2.7l-0.5,2.9l-0.8,2.9l-3.1,6.7l-1.3,2l-1.6,1.1l-0.2-0.6l-2.7-2.6l-1.3-0.8v1.2
		l-0.6,3.1l-15.1,8.2l-1.8,0.7l-6.7,0.5l-1.8-0.5l-0.4-1.6l0.9-1.4l1.2-1.2l0.4-1l-0.8-1.2l-4.6-2.8v4l-3.3-3.9l2-6.4l4.5-5.2
		l4.4-0.3l1.4-4.2l1-1.5l1.4-1.6l1.7-1l1.5-0.2l1.2-0.9l0.4-2.7l1.9,2.3l2.5,0.3l2.2-1.5l1-2.9l-1.2-2.4l-4.1-3.3l1.1-1.6l2.5-0.1
		l2.7,1.4l2.2,1.8l1.7,0.9L81.3,807.3z M295.3,800.1l0.5,0.3h1.9l0.5-0.5l1.1,0.4l0.7,1.3l-0.6,0.9l-0.9,0.4l-0.8-1.6l-1,1.9
		l-0.9,0.7l-2.7,0.4l-1.7-2.4l-1-0.3l0.8-1.8l0.8-0.8l1.7-0.8l0.7,0.2l0.7,0.7L295.3,800.1L295.3,800.1z M206.1,795.8l-0.9,0.4
		l-1-2.4l1-0.6l1.4,1.3L206.1,795.8z M278.1,792.2l1,1l0.1,1l-1.9,0.5l-0.7,1.8l-1.1-0.3l-0.6-1.3l-2.3-0.4l-0.4-1.1l0.7-1.4
		l1.8,0.9l0.6-0.7l1.4-0.5L278.1,792.2z M40.5,808.4l-1.7,0.2l-1.9-0.5l-0.5-1l1.9-0.4l1.7-1.5l-0.2-0.6l-3.5-0.8l0.9-1l2.2-0.4h2.3
		l1.8-1.4l0.7-1.9l-0.7-1.9l-1.6-2.6l-1-3.2l1.2-0.9L44,792l1.2,1.2l1.9,1.1l0.1,1.7l0.7,1.4l-0.2,1.9l-0.5,2.2l-0.1,1.8l-0.9,1
		l-2.6,2.2L40.5,808.4L40.5,808.4z M8.8,791.3l0.4,2l-0.3,0.8L8,794.8l-2.4,0.8l-1.3-0.1L3,796.1l-1.1-0.5v-1.1l1.1-0.2v-0.5l-3-2.5
		l0.9-0.3l1.3,0.7l1.6,0.3l3.5-2.1h1.1L8.8,791.3L8.8,791.3z M37.4,801.3l-1.5,0.7l-1.3-1.1l-0.6-6.7l0.6-3.7l1.3-1.7l2,4.4l1.7,2.5
		l1.3,2.7l-0.4,2.3l-1.4,0.4L37.4,801.3L37.4,801.3z M27.7,789.8v2l-1.4-0.6l-0.6-1.1l-0.6,0.3l-1.5-0.3l-0.8-1.7l1.9-1.5l1.6,0.3
		l0.5,1.5l0.5,0.1L27.7,789.8L27.7,789.8z M56.2,784.3l0.2,0.8l2.5-2l1.8,1.9l0.3,2.6l1.8-0.1l0.3,0.7l-3,1.5l-0.8,1.1h-1.1
		l-1.2-0.4l-0.9,0.4l-0.5,0.7l-1.5,0.2l-1.8,1l-1.1-0.4l0.6-4.9l-1.2-0.6l-0.9-0.9l0.6-0.7l1.1-0.6l0.6-0.8l3-2.2l0.7-0.1l1.1,0.5
		l0.1,1.1L56.2,784.3L56.2,784.3z M48.5,775.9l-0.9,0.9l-1.3-1.1l0.5-1.2l1.6-0.9L48.5,775.9L48.5,775.9z M315.9,799.3l-1.8,0.1
		l-1.8-0.9l-5.6-5.7l-0.7-2.3l1-3.5l0.7-0.9l3-2.3l0.5-1.1l1.2-4.9l-2.4-2.6l0.3-1.5l1.7-0.8l2-0.3l1.7,0.8l0.4,1.8l-0.8,2.1
		l-1.9,1.8l1.6,0.4l1.5,2.3l1.1,2.8l1.3,4.9l0.2,2.8l-0.5,2.7l-1.2,2.7L315.9,799.3L315.9,799.3z M307.1,774.9l-1.6,1.3l-1.3-0.7
		l-1.2-1.8l1-1.2l1.2,1.4L307.1,774.9z M31.2,780.5l-2.4,3.2l-1.1,0.8H25v-0.6l-2.3-1.4l-2.5-1l-0.7,0.2l-1.4-3.2l1.1-1.5l4.6-1.9
		l2.9-3.9l1-0.5l0.6,0.4l1.3,2.5l1.9,1.7l0.5,0.8l0.2,1.5l-0.3,1.5L31.2,780.5L31.2,780.5z M50,762.6l1.5,0.7l0.9,1l1.4,0.7l1.9,0.2
		l1.6,0.3l1,1l0.6,1.1v2.2l0.6,1.7v2.1l-0.9,1.8l-2,0.2l-1.9-1.8l-1.4-2.2h-1.7l-1.4,1l-1.2,0.1l-1.1-0.8l-0.3-1.6l-1.4-2.7
		l-3.2-3.3l-0.6-1.6l1.5,0.4h1.3l1.1-0.6l1.7-0.2L50,762.6L50,762.6z M81.8,764.5l-0.6,0.1l-1.4-3.8l1.2-0.7l0.6-0.9l0.7,0.3
		l1.1,1.1l-0.9,1.1l-0.9,0.5l-0.1,0.8l0.4,0.5L81.8,764.5L81.8,764.5z M32.5,760.5l0.1,4.1l-2.6-0.8l-0.8-0.5l-1.3,1.8h-2.2l-2-0.4
		l-0.8,0.5l-0.4,2.6l-0.8,2.3l-1.4,1.7l-1.9,0.8l-1.8-0.2l-1.4-1.3l-0.8-2l-0.3-2.6l0.5-2.4l1.2-1.7l1.8-1.1l1.9-0.7l2.2,0.8
		l2.8-0.6l5.2-2h1.8l0.6,0.5L32.5,760.5L32.5,760.5z M263.5,756.7l-0.2,2.1l-1.7,1.1l-0.6,1.3l-1-0.3l-0.6-0.6l0.7-0.7l-0.1-1.2
		l0.9-0.8l1.4,0.3L263.5,756.7L263.5,756.7z M56.4,763.7l-1.9,0.5l-1.8-1l-2.1-1.8l-2.6-1l-2-1.1l1.6-1.4l3.9-0.6l2.3-1l1.2-1
		l1.5,0.7l1.6,2.3l-1.1,1.8l0.4,2.6L56.4,763.7L56.4,763.7z M53.9,741.6l0.8,0.4l0.7,1.1l0.2,1.2l-2.1,1.4l0.7,3l-0.3,1.8l-1.2,0.7
		l-1.5-0.1l-1,1.2v2.1l-0.5,1.9l-1.7,0.9l-1.4-0.1l-0.3-1.9l-2.4-2.7l-1.3-1.8l-1.1-2.1l0.5-1.5l2.3-1.2l1.9-0.2l1.5,0.9h1.5
		l0.4-1.2l-0.3-2.3l1.5-1.4L53.9,741.6L53.9,741.6z M303.8,738.1l1.3,0.7l1.5-0.2l0.9,0.5l-3.5,4.1l-1.7,0.3l-1.2-0.4l-1.5-1.5
		l-0.2-0.8l0.9-1.3l1.7-1.3L303.8,738.1L303.8,738.1z M88.3,745.6l0.3,4l-3.1,2.9l-1.7-0.6l1-1.2l0.5-1.1l-0.4-0.7l-5.1-2.8
		l-4.7,0.7l-2,1.1l-2.4,0.3l-1.9-0.6l-0.9-1.3l0.8-1l2.5-0.1l3.3-1.2l1-1.3l0.2-0.8l2-0.6l0.7-1.2l0.1-1.4l-1.3-1.7l-0.5-1.9
		l1.7-0.9l2.8,0.6l2.8,1.5l2,2l-0.2,1.1l-1.4,0.2l-2.4,1.6l-0.3,0.9l0.3,2l1,0.4h2.3L88.3,745.6L88.3,745.6z M45.5,735.4l0.4,2.8
		l-0.5,2.6l-1.2,2.4l-1.9,1.6l-2.3,0.6l-1.3-0.5l-1-0.9l-1.4-0.4l-5.1,1.1l-2,0.1v-1.2l1.6-1.4l2.8-4.6l2.2-2l2.5,0.5h1.3l0.6-1.2
		l0.7-2.5l1.6-0.4l1.7,1.2L45.5,735.4L45.5,735.4z M70.4,734.4L69,735h-2l-0.8-1.8l0.4-1.8l1.2-0.7h2.7l0.9,0.4l0.1,0.8l-0.5,2
		L70.4,734.4z M75.1,724.2l0.6,0.8l1.3,0.7l1.9,4.5l-0.6,1.1l-2.5-0.9l-0.6-2l-1.4-2.6l-1-1.3L75.1,724.2L75.1,724.2z M65.2,724.8
		l-0.3,2.5l-0.8-0.5l-1.2-2.7l0.7-1.7l2.1-1.4l0.2,0.8L65.2,724.8L65.2,724.8z M72.6,722.8l-0.9,0.8l-1-1.5l0.2-1.1l-0.1-2.4l-1-1.2
		l0.7-0.5l1,0.3l1.3,1.1l1.3,1.7l0.1,2.7L72.6,722.8L72.6,722.8z M58.4,718.3l1.1,0.6l0.3,0.9l-0.3,2.7l-2,1.6l-3,0.7l-0.3,1.2
		l0.3,1.2l-0.2,0.5l-2.9,0.7l0.3-1.2l1.1-2.6l0.4-4.1l1.7-0.7l-0.1-1.1l-0.9,0.3l-4.3,0.2l-1.6-0.1l-1.1-0.5l-0.1-0.9l1.7-0.9
		l0.8-1.2l1.5-0.9l0.7-0.8l1.1-0.4l2.8,0.6l1.4,1.4l0.4,2.1L58.4,718.3L58.4,718.3z M54.1,707.1l1.4,0.6l2-0.1l1.4,0.4l1.1,1.7
		l0.1,2.9l-1.4,1.1l-0.9-0.4l-1.4-1.5l-0.7-0.5l-1.6,0.4l-0.2-0.9l-1.4-0.2l-0.2-0.5l1.1-0.8l-1.8-0.4l0.3-0.9l1.2-0.8L54.1,707.1
		L54.1,707.1z M35.4,700.2v3.4l-1.6-1.1l-0.9-1.4l0.1-1.6l1.7-0.6L35.4,700.2L35.4,700.2z M61.3,698.5l1.5,0.9l1.3-0.4l1.6-0.8
		l0.9,0.5l0.4,0.8l1.7-0.3l0.4,1.3l-1.1,1.1l-1.4,0.1l-0.6,0.7v1l1.7,1.8l1.5,0.7l1.6,0.1l0.9,1.3l0.5,1.7l0.8,1.1l0.3,1.5l-0.6,1.9
		l-2.9-0.5l-1.4-2.2v-1.7l0.3-0.9l-1-0.3l-4.1-0.7l-0.9-0.8l-2.1-0.3L59,705l-0.8-1l-1.7-4l1-1.6l2-0.6L61.3,698.5L61.3,698.5z
		 M49.5,706.8l-0.6,1.5l-0.9,0.3l-4.2-1.2l-1.5,0.3l-1.4-1.2l-0.7-0.1l1.3-6.2l0.8-1.8l1.1-0.6l1.9-0.6l1.7-0.9l0.8-1.2l1.2-2.7
		l2.9-1.8l3.2-0.8l2.4,0.7l-4.8,2.8l-1.1,1.6l-0.1,1.9l0.7,2l2.1,3.5l-1.7,0.7l-1.8,1.7L49.5,706.8L49.5,706.8z M55,665.1l-1.4,1.1
		l-1.6-3.1v-0.6l1.2-1.9l1,0.5L55,662l0.3,1.8l0.5,0.9L55,665.1L55,665.1z M37.2,650.6l0.4,1.2l-1.5,1.4l-2.6,0.7l0.4-1l-1.5-1.4
		l1.7-1l-1.3-1l2-1.6l1,0.9l0.3,0.7l0.8,0.3L37.2,650.6L37.2,650.6z M287.3,664.7l-0.8,4.2l3.2,3.8l1.6,5L292,688l2.1,3.9l3.9,2.8
		l3.5,3.7l1.4,4.1l1.7,3.6l9.9,10.7l2.1,5.3v3.6l0.4,0.8l-1-0.3l-6.5,0.1l-2.1-0.4l-0.8-1l-0.4-1.4l-1-1.9l-1.8-1.4l-0.4,1.4
		l0.3,2.4l0.3,1l-1.1,3.5l-0.7,1.3l-1.4,1.7l-6,4.7l-3.3,1.5l-2.4-2l-3-6.1l-2.5-1l-1.7,2.5l-0.9,3.8l0.2,3.3l1.5,3.4l2.4,4.4
		l2.8,3.8l2.6,1.7l1.7,2.3l1.7,0.8l2-1.3l4.9-4.6l3.4-0.5l2.9,0.6l2.7,0.2l2.9-1.6l-0.1,3.8l-0.5,2.7l-1.6,5.5l-1.8,9.6l-1.3,2.2
		l-5.6,1.9l-4.4-2.2l-3.5-0.8l-2.9,6.4l-1-0.6l-1.2,0.6l1.2,2.5l1,2.7l1.1,8.6l-0.7,1.6l-1.6-0.9l-2.6-2.7l-3.8-0.5l-2.8-1.5
		l-1.9-2.9l-0.7-4.3l0.9-4.1l2.1-4l1.5-3.8l-0.7-3.2l-1.3-1.8l-2.5-5.5l-0.7-0.4l-1.8-0.2l-0.8-0.8v-1l0.7-1.9l-2.4-5l-0.4-1.9
		l0.1-1.2l0.7-1.9l0.2-0.9l-0.4-1.1l-0.7-0.9l-0.7-0.2l-0.9,1.2l-2.7,6.9l-1.1,1.5l-6.7,2.3l-3.2,0.4l-6.8-0.1l-2.6,0.7l2.1,1.7
		l4.1,1.8l3.3,1v1.2l-6.7,2.2l-3.4,1.9l-0.6,2.6l1.4,1.1l3-1.2l1.6,0.7l1.1,1.9l-0.4,0.6l-1.2,0.8l2.2,7.6l4.5,4.1l5,3.2l3.4,4.9
		l-1.7-0.3h-2.7l-1.2,0.3l6.8,2.6l0.8,2.1l0.5,4.1l-3.1,2.8l-3.1-0.2l-1.9,0.5l-7.2-4.5l-2.3-0.7l-2.1,0.4l-2.5,1.2l-2.2,1.5
		l-0.9,1.5l2.2,4.6l2.3,0.5l1.3,0.9l6-1.6l3.3,2.8l-7.5,6.9l-2.7,3.8l-2.9-1.3l-4.5,3.4l0.5,3.4l2,2.2h-4.4l-6.5-8.6l-2.2-4.5
		l-5.9-6.5l-1.8,0.4l-6.3,3.3l0.6,2l0.5,0.8l-2.6-0.9l-2.5-0.5l-2.1-1.1l-1.5-2.8l-0.2-2.8l1-1.7l3.5-2.1l1.2-1l3.2-4.2l1.9-4.2
		l1.2-1.4l2.3-1.1l-0.2,3.2l-0.8,3.1l-2.3,5.6l4.7-0.3l3.8-1.4l2.4-3.2l-0.1-5.7l-0.9-2.2l-1.2-1.3l-1-1.5l-0.1-2.9l0.8-1.5l4.6-5.1
		l1.6,0.9l1.1,1.2l0.3,1.5l-0.9,1.8l1,2.5l1.4,1.8l1.8,0.6l2.4-0.9l1-1.4l2.2-4.6l1.2-2l-2.2-3.3l-0.8-3.4l-1.1-1.6l-3,2.3l-3.5,1.5
		l-2.8-2.4l-3.9-6.3l-2.3,3.5l-3.2,8.3l-2.2,2.7l-2.3,0.9l-1.9-0.1l-4-0.8l-1.8,0.6l-1.8,1.6l-2.8,3.8l-1.3,1.1l-5.8,3.4l-3.1,2.4
		l-2,1.2l-2,0.5l-1.2,0.6l-0.2,1.6v2.1l-0.3,2.2l-1,1.6l-1.5,1.7l-0.7,2.1l1.2,2.5l-8.7,8.6l0.2,7.9l-1.4,1.4l-4.3-2.1l-1.3,1.6
		l-0.7,1.9l0.1,2.1l0.9,2.2l-2.1-0.6l-4.4-3.2l-6.1-1.8l-1.4-0.8l-1.2-3.7l0.6-9.7l-0.6-3.8l0.9-2.4l-0.2-3l-1-2.6l-1.8-1.3
		l-1.7,0.5l-1.8,1.6l-1.3,2.1l-0.5,1.8l0.6,2.7l1,2.3l0.1,1.6l-4.9,1.7l0.6,2.3l3.6,4.5l-6.1,3.5l-2.3,2.1l2.4,1l0.5,0.4v1.9
		l-0.5,0.4l-1-0.2l-1.5-0.9l-0.7-0.2l-2.1,0.3l-0.4,0.9l-0.1,1.4l-0.8,1.9l-1.2,0.9l-4.7,1.2l-1.8,1.4l-0.6,1.3l-3.8,12.9l-0.4,1.9
		v2.2l-3.8-0.8l-7.3,2.4l-1.8-0.4l-0.3-2.2l1.5-4.7l-0.3-2.1l-1.4-1.3l-2-0.4l-4.1,0.2v-1.2l1.1-1.8l0.3-3l1.2,0.1l0.7-0.5l2.3-4.1
		l0.4-1.9l-0.6-2l-0.8-0.6l-1.2-0.4l-2.3-0.3l-1.7-0.5l-0.3-1l0.9-1.2v-2.5l0.6-2.4l-0.3-1.2l-2.5,0.8l0.7-4.6l3.1-2.3l4.3-0.9h3.9
		l-0.7-1.5l-1-1.2l-1.2-0.8l-1.5-0.5l2.5-1.7l1.5-2.1l0.1-1.8l-2-1.1l-0.7,0.3l-1.4,1.8l-1,0.7h-1.3l-2.1-1.3h-1l-1,0.8l-0.7,1.4
		l-0.5,1.7l-1.4,0.3l-2.9-0.3l-3.4,0.1l-1.8,0.3l-2.4,0.9l-0.3-3l-1.3-1.8l-3.8-1.9l0.1-0.6l-0.8-1.5l-1-1l-0.9,2l-1.1,0.7l-1.3,0.2
		l-1-0.4l-3.3-3.1l-0.4-0.2l-0.5-1.9l0.9-0.9l0.6-1l0.6,0.9h1.6l1.1-0.9l-0.6-2l-4.2-2.1l-3.3-2.4l-0.3-5.5l1.4-6.2l1.6-4.3l0.2-1.5
		l-0.1-1.7l0.2-1.5l1.3-0.7l2.4,0.5l0.9,0.6l1.1,2.3l4.8,7.3l-1.5,2l-0.5,1.9l0.3,2l0.5,2.1l3.3,9.2l2,1.2l7.8,1.3l3.4,2.3l1.8-0.2
		l1.3-3.3l-1.8,0.3l-0.9-0.5l-3.3-0.7l-1.5-2.4l-2-2l0.5-4.5l-2.1,0.4l-1,2.7l-1.6,0.2l-1-3.6l-0.5-4.8l1.2-2.8l-0.9-3.3l4.3-0.4
		l6.6,1.4l0.9,1.5l-0.4,2.5v1.6l0.3,1.1l1.7,1.1l0.9,1.3l2.1,1.3l2.8,1.2l1.8,1.6l3.8,2.7l0.7-0.8l-3.3-4.4l2-0.4l6.7,3.7l4.5,1.5
		l3.4-0.9l-3.4-0.5l-2.7-1.8l-4.7-4.1l1.1-1.5l-3.4-2.5l-5.2-6.6l-2.9-1.4l-3.9-0.8l-4.7,0.3l-3.2-2.1l-4,1.1l-3.6-1.2l-0.5-1.8
		l2.2-2.9l2.3-0.9l4.7,0.7l6-2.6l7.2,5.3l2.5-0.5l1.4,1.2l0.7,0.3l-0.7-3.7l0.3-3.4l1.9-2.5l3.9-1l7.3,2.2l3.7,0.3l-1.2-2.5l2.5-1.2
		l1.3-0.3l1.6,0.1l-2.3-2.7l-3.6-0.7l-8.2,0.8l0.6-1.9l-0.6-2.6v-2l0.6-1.3l1.5-2.1v-2l-1.2-2.9l-2.2-0.6l-2.4,1.1l-1.7,2.4
		l-0.2,1.6l1.1,3.2l0.2,1.8l-0.3,0.3l-1.9,3.8l-1.8,6.5l-1.6,2.3l-3.1,0.3v-0.5l-1-0.7l0.6-1.1l0.9-2l0.6-1l-2.1-1.1l-1.5,0.6
		l-1.4,1.3l-2.1,0.6l-4.2-0.9l-1.3,0.6l-0.3,2h-2.1l-3.5,1.1l-1.6-0.9l-0.6-2l1.2-1.9l3.2-3.2l1.2-1.8l0.6-1.4l0.4-2.8l-0.5-2.9
		l0.6-1.4l2-1.8l-1.9-1.6l-1.8-3.2l-0.9-3.8l0.3-3.2l2.2-2l3-2.1l0.9-1.7l-3.9-0.9l-1.8,0.3l-1.9,1.9l-2.8,1.2l0.3,1.9l0.7,2.2
		l0.1,1.8l-2.2,2.1l-2.9,0.2l-2.8-0.9l-1.9-1.4l2.1-1.3l-1.4-1l-1.2-1.2l-0.9-1.4l-0.8-1.8l1.8-0.9l1.8,0.1l3.9,0.8l-0.4-4.1
		l4.4-4.4l-1.2-4.1l-4.5-6.2l-2.8-2.6l-3-1l1.2,4.3l-1.1,2.5L77,708l-2.2-3l1.4-2l-4-5.4l-0.6-3.2l2.3-2.7l3.2-0.4l2.9,1.4l1.3,3.1
		l2-1.3l1.1-2.2l1.3-4.4l1.1,2.2l0.2,1.8l-0.4,3.6l-0.8,1.8l-0.1,1.1l0.3,1.2l1.3-0.3l0.5,0.3l0.8,3.7l0.6,0.6l1.9,1.1l1.5,0.6
		l2.7,0.1l1.2,0.7l-0.9,2.2l0.2,2.1l1.1,2l1.7,1.7l4-9l0.4-3.1v-3.5l-0.8-1.2l-3-0.8l-1.2-0.7l-1.1-1l-1.6-4.4l-5.2-6.1l-1.2-2.7
		l0.3-1l1.5-1.8l0.4-1.8l-1.7-1.2l-0.8-1.6l0.3-2.6l-2,0.8l-2.1,0.3l-4.5,0.1l1.7-2.2l2.9-0.7l3.3-0.2l2.9-0.7l-1-0.3l-1-0.9
		l-1.3-0.2l0.8-1.8l3-2.9l0.5-1.5l-1-3.8l0.5-3l1.4-3l3.5-5.3l0.9,0.9l2.3,3l2.8,0.9l1.4-0.1l-0.4-1.4l-3-3.5l3.3-1l15.4-4.3
		l4.5,1.2l-0.9,7.1l-1,5.2l-0.2,5.3l3.9,1.3l4.7-1.2l5.1-1.8l5.3-0.8l2.1-1.6l2.3-1.4l2.7-0.7l2.6-1.3l2.1-1.8l1.3-2.8l-0.3-2
		l-0.1-2l2-1.5l1.4-2.2l-0.1-2.6v-2.7l4-3.5l5.3,0.5l2.7-3.1l2.8,0.2l2.8,1.1l4.8,4l7.5,10.1l4.8-0.1l0.4-2.7l1-2.6l1.6-1.5l1.1-2
		l4.7-0.3l3.2,4.9l-1.4,5.6l0.9,3.6l3.3,3.7l-0.2,6.4l3.8,4l5.9,0.9l4.5-2.7l4.8-0.8h3.3l2.7-0.7l2.4,1.9l2.7,1.6l5.9,0.1l5.7-0.8
		h5.3l4.9-0.7l4.6-5l5.8-3.2l10.1,3.7L287.3,664.7L287.3,664.7z M179.2,668.9l-4.4,1.3l-4.1,1l-5.7-1.5l-3.4,3.2l4.3,9.5l8.6,5.2
		l9.8,1.6l6.2-8.3l-3.2-8.9L179.2,668.9L179.2,668.9z"/>
</g>
<g id="3">
	<path id="KOR2502" class="st0" d="M95.4,429.5l-0.3,2.2l0.4,1.9l1.2,3.6l2.2,3.3l0.9,3.1l-1.6-0.7l-7,0.4l-2.3-0.4l-0.4-2.9l0.8-1
		l1.2-1.2l0.6-1.7l-3.7,2.4l-1.8-0.9l0.5-2.9l2.8-4l-1-1.2l-2.2,2.6l-0.7-1.8l-1.7,0.9l0.9-4.7l-0.6-7.3l-0.8-4.3l-1.6-5.5l1.4-1.8
		l2.8-2.6l3-1.1l2.1,3.4l0.3,1.2l-0.7,1.5l-1.2,0.9l0.1,1.4l2.7,6l0.4,2l-0.7,1.6l0.8,1.4l1.8,1.1l1.4,2.4h-3.3v1.2l1.1,0.2
		L95.4,429.5L95.4,429.5z M183.5,345.5l7.5,1.5h6.2l13.1-5.6l6.9,3.1l6.1,5.1l7.4,1l1.3,3l1.9,1.9l2.1,1.3l2.7,5.5l2.1,1.4l-0.2,4.1
		l1.3,1.2l1.1,2l0.3,2.2l-0.4,2.3l-0.8,2l-0.4,2.2l-0.3,1.7l-0.8,1.5l-1.4,0.4l-1.5-0.2l-1.4,1.4l-3.3,5.8l-4.4,6.4l-22.5-9
		l-3.7,10.2l0.5,29.9l-2.4,2.3l-1.4,4.1l14.4,2.9l10.8-3l8.4,13.3l2.9,5.6l0.8,14.3l3.3,10.7l7.8-2.1l6.9-5.1l2.3-0.8l4.1-3.3
		l2.3-8.5l2.1-3.4l0.7-4.6l2.1-2.8l2.7-2l2.2,1l2,0.7l-0.6,3.4l-2.6,2l-1.6,2.9l-1.5,3.3l-3.5,6.5l-1.9,7.6l-0.3,5.4l0.4,5.6
		l5.1-1.1l4.7,1.5l4.9,3l1.6,5.9l-0.2,6.7l1.3,6.8l3.3,5.7l3.6,5.6l-3.8,3.8l-3.8,3.4l-4.7,1.3l-4.7,0.2l-3.4,0.8l-9.2-1.2l-0.6-1.6
		l1.1-2.2l-0.9-1.9l-2.1-0.6l-5.2-2.6l-7.1-12.8l-5.1-4.5l-2.6,2.7l-2.2,3.3l-3.3,0.7l-2.2,1l-2.3,0.8l-8.7,1.7l-4.5,1.7l-4.6,0.9
		l-3.4-5.3l1.4-8.6l-5.8-1.2l-16.4,5.2l-8.9,1.9l-7.6,0.8l-7.1,8.8l-3.3,1l-3.2,2.2l-2.7,2.6l-2.9,1.4l-3.5,0.6l-3.4,1.5l-2.4-1.2
		l-0.8-1.3l-0.2-1.8l-0.9-2.5l-1.3-2.1l-2.6-3.5l-1.5-2.4l2.2-1.8l-1-1.2l-4.1-1.6l-3.7-6.2l-2.7-1.2l-2.1,1.2h-1l-0.1-2.2l-3.6-2.3
		l-3.1,0.5l-0.9,3.7l-0.6,1.3l-1-1l0.6-5.8l5.4-2.7l4.7-1.5l6.6,1.9l-2.3-3.9l-1.3-1.5l-1.8-1.3l-1.1-0.2l-1.2,0.7l-0.9-0.5L117,482
		l-1-1.4l3.3-9.1l1.9-4.1l2.4-1.5l-1.8-2.2l-6.7-2l-2.4-1.3l2.4-2.2l7-1.7l1.5-2.1l-1.1-2.6l-2.5-0.6l-5.2-0.1l-1-0.7l-1.9-2.3
		l-1.3-1.1v-1.4h2.1l-2.4-4.4l2.9-1.6l3.2-1l3.1-4.4l6.5-1.8l3.1-1.7h-9.3l-2.2,1.3l-3.4,5.1l-2.5,0.5l-1.6-1.9l-1.4-3.7l-0.9-3.7
		l0.1-2.2l3.3-3.9l1.5-2.4l-0.5-1.1l-3,1.1l-1.4-1.2l-1.3-0.9l-0.7-0.1l-0.7-1.8l0.7-1.7l-0.2-1.8l-0.8-3.4l-0.9-1.4l-0.1-0.9
		l2.2-0.1l3.1-1.5l3.3,0.1l0.3-2.4l0.9-2.1l-1.3-1.7l-1.8-0.4l-2.6-2.5l1.6-2.3l2.3-1.8l-1.5-2.8l-3.8-0.7l-0.8-3.3l1.2-2.4l3.7-0.6
		l-2.1-2.4l-0.7-1.2l-0.5-1.8l-1.4,1.2l-2.2,2.4l-2.5,1.1l-0.5,1.4l0.1,1.4l1.1,1.7l0.2,3.3l-1.2,3.9l0.7,5.2l-1.7,4.4l-1.4,1.8
		l-2.9-2.3l-3.1-0.1l-3-2.1l0.7-10.6l1-3.9l-1.8-0.8l0.5-5l-1.7-2.1l-2.5,0.5l-1.5,2.5l-0.4,3.2l-1.1,2.3l-3.6,0.1l1.5,3l2.9,4.6
		l1,3.3l-1.7,1.5l0.2,1.6l2.7,3.6l-2.5,0.5l-2,1.2l-1.7,1.6l-1.4,2.1v-1.5l-0.5-2.8l-0.6-1.1l2.2-4.8l-4.6-7.7l1.4-3.8l-1.2-5.4
		l-3,1.7l-4.1,5.3l-3.1,1.1l-1.9,0.4l-1.6,0.6l-1.6,0.1l-1.9-1.1l-1.1-2.8l-0.3-1.8l0.8-0.8l6.5,0.1l1.7-1.2l-0.1-2.9l-1.7-3.1
		l-2.4-1.2l-2.5-0.8l-2.1-1.7l-0.8,2.4l-0.5,4.9l-0.9,2.3l-1.8,1.7l-0.6-1.6l0.2-5l-0.3-4.8l0.4-1.3l4.1-5.2l0.8-1.8l0.6-2.5
		l0.5,1.9l1.5,3.4l1.1,1.6l0.8-0.8l1.1,0.1l2.5,0.7l-1.6-2.4l-1.7-3l4.5,1.3l1.9-0.5l1.2-2.3l-4.1-0.3l-2.5-1.1l-0.3-2.5l2.6-4.2
		l-3.5-3l0.2-2.7l2.7-2.3l3.9-1.4l-1,4.9l0.4,1.3l2.1,0.5l4-0.1l1-0.7l1.1-1.8l0.2-4.5l-0.4-5.9l0.8-4.9l3.7-1.2l-0.5,2.8l0.1,4.2
		l0.7,4.4l2,5.2l-1,1.8l-1.5,1.7l-1,1.7v1.8l1,2.9l0.2,0.8l-0.9,1l-3.4,2.3l0.1,1.7l0.5,1.8l0.9,1.1l1.1-0.5l2.7-2.5h2l4.5,3.1
		l-3.3-7.1l-1.1-4.4l1.7-2l2.5,3.3l1.6,1l0.7-2.2l0.7-0.6l1.6-0.7l3.2-0.8v-1.2l-1.3-0.2l-3-1.3v-1.2l3.8-0.9l2.2-3.7l0.6-4.4
		l-1.2-3.3l-1.4-0.5l-4.2-0.1l-2-0.8l-1.5-1.9l-0.5-1.8l0.7-0.6l2.3,1.6l1-3.1l-1.1-1.8l-2.4-0.7l-2.9,0.2l1.2-1.5l1.5-1.1l1.7-0.3
		l1.6,0.9l1.5,1.1l1.3,0.3l0.6-0.6l-0.7-1.5v-1.5l5.9-0.1l2.8,1l1.1,2.6l-0.8,1.6l-1.5,1.7l-0.9,2.3l1,3.2l1.4-1.4l1.8-1l1.5,0.1
		l0.7,1.6l0.2,1.4l0.7,1.3l0.2,1.3l-1.8,2.3l-0.4,1.2v8.8l0.5,2.6l1.2,1.8l1.1,0.7l0.6-1l0.6-4.9l2.9-9.5l0.7-4.6l0.8-1.1l1.9,1.3
		l2.8,3l1.1,2.2l0.8,2l1.2,1.3l2.3,0.1v-1.3l-1.2-1.5l-1.3-4l-1.3-2l-9.7-10.3l-0.6-0.5l0.5-2.2l1.3,0.3l1.7,1.5l2.5,3.2l1.3,1.1
		l1.7,0.8h1.9l1.5-0.9l0.1-1.3l-1-1.3l-2.3-0.6l-3-1.4l-3.3-3.1l-1.4-4.6l-0.4-3.1h2.9l2.5,1.2l2.3,2l6.2,4.3l1.2,1.3l2.4,1.7
		l2.3,1.2l1.6,2.7l-0.7,2.7l-1.6,1.8l0.4,1.5l1.5,3l0.2,1.8l-0.6,3.3l1.8-1.2l0.7-1.5l0.4-1.6l-0.6-4.9l0.6-1.6l2.5-4.5l2.6-1.2h2.5
		l2.7,0.3l3,1.2l3.9,1l2.7,1.8l3.4,3.4l0.2,4.3l-2.5,8.5l1.9-1.2l3-3.9l1.6-0.3l1.1,1.7l0.7,2.9l0.3,5.6l-0.1,1.2l-0.8,2.7l-0.1,1.6
		l0.3,1.6l1.4,2.4l1.3,6.1l-0.4,1.8l-2.6,0.8l0.5,1.7l0.6,1.1l0.9,0.8l1.3,0.6l0.9-4.5l1.6-2.6l0.8-2.8l-1.3-5l3.2,1l3.3,0.4
		l-5.4-6.1l-1.6-3.3l3.2-1.4l2.9-0.5l6.9-2.8L183.5,345.5L183.5,345.5z"/>
	<path id="KOR2503" class="st0" d="M245.4,429.6l-0.4,1.5l0.6,1.5l1.1,1.2l1.4,0.7l0.9,2.2l-0.6,3.4l4.8,1.4l5.1-1.2l1.8-2.6
		l2.2,0.5l-0.2,2.2l1.9,1.1l0.3,3.5l1.6,5.2l-0.7,4.6l-2.1,3.4l-2.3,8.5l-4.1,3.3l-2.3,0.8l-6.9,5.1l-7.8,2.1l-3.3-10.7l-0.8-14.3
		l-2.9-5.6l-8.4-13.3l17.5-4.8L245.4,429.6L245.4,429.6z"/>
	<path id="KOR5129" class="st0" d="M228.6,396.7l-3.1,6.7l0.3,3.3l-2,5.7l-0.7,6.1l11.7-2.4l12,0.8l-0.1,2.1l-0.8,1.9l-0.3,1.5
		l0.5,1.2l0.3,2l-0.3,2.1l-0.7,1.9l-3.6-0.3l-17.5,4.8l-10.8,3l-14.4-2.9l1.4-4.1l2.4-2.3l-0.5-29.9l3.7-10.2L228.6,396.7
		L228.6,396.7z"/>
</g>
<g id="2">
	<path id="KOR2494" class="st0" d="M450.7,322.2l-1.9,2.2l-2.1,1.3l-1.9-0.7l-1.5,0.9l-3.7,3.9l-4,3.4l-2.7,2.5l-3.2,1.1l-2,1.6
		l-1.4,2.5l-4.9,3.5l-3.4,5l-1.7,3.7l-2,3.7l1.1,2l2.1,1.9l-2.3,7.8l-13.3,5.5l-5.6-1.8l-2.4-4.8l-3.7-3.2l-2.7-1.9l-2-2.3l-2.1,2
		l-1.6,2.6l-0.8,3.1l-1.1,3.3l-4.6-0.4l-4.9-1.7l-2.5-1.7l-2.7,1.8l-2.6,3.5l-3.2,0.2l-2.5-1.6l-1.9,3.2l-2,4.3l-1.1,4.1l3.1,3.9
		l2.3,4.4l-11.3-1.7l-6-2.7l-3.4,5.2l-5.6,2.6l-4.9,3.3l-0.4,2.4l0.1,1.8l-0.9,2l-3.5,4.8l-2.3,2.5l-2.3,0.4l-2.4,1.1l1.8,4.5
		l6.2,1.1l7.7,11.3l-2.8,2.8l-1.6,4.5l-0.6,10.7l-1,4.7l1,3.4l1.8,3.1l-2.3,4.5l-3.5,3.1l0.9,9.3l6.4-1.5l3.8,1.3l4.5,3.7l3.1,1.5
		l8.1-2l3.5,2.7l1.8,10.2l-3.3-0.2l-3.8-0.7l-3.9,3.3l0.9,5.3l0.1,2.6l-0.4,3.3l-1.5,1.8l-1.2,2.2l-1.4,5l-2.4,4.8l-4,1.4l-3.8,1.8
		l-2,2.2l-2.1,1.8l-2.3-1.2l-2.3-2.2l-5.8,2.6l-5.1,3.1l-2.6-0.7l-1.4-1.8l-7.1-2.4l-2.4-2.8l-2.7-1.6l-1,1.4l-1.3,0.3l-1.5-1.4
		l-1.3-1.6l-3.6-5.6l-3.3-5.7l-1.3-6.8l0.2-6.7l-1.6-5.9l-4.9-3l-4.7-1.5l-5.1,1.1l-0.4-5.6l0.3-5.4l1.9-7.6l3.5-6.5l1.5-3.3
		l1.6-2.9l2.6-2l0.6-3.4l-2-0.7l-2.2-1l-2.7,2l-2.1,2.8l-1.6-5.2l-0.3-3.5l-1.9-1.1l0.2-2.2l-2.2-0.5l-1.8,2.6l-5.1,1.2l-4.8-1.4
		l0.6-3.4l-0.9-2.2l-1.4-0.7l-1.1-1.2l-0.6-1.5l0.4-1.5l0.7-1.9l0.3-2.1l-0.3-2l-0.5-1.2l0.3-1.5l0.8-1.9l0.1-2.1l-12-0.8l-11.7,2.4
		l0.7-6.1l2-5.7l-0.3-3.3l3.1-6.7l4.4-6.4l3.3-5.8l1.4-1.4l1.5,0.2l1.4-0.4l0.8-1.5l0.3-1.7l0.4-2.2l0.8-2l0.4-2.3L243,371l-1.1-2
		l-1.3-1.2l0.2-4.1l-2.1-1.4l-2.7-5.5l-2.1-1.3l-1.9-1.9l-1.3-3l7.1-2l6.8-3.3l5.2-1.8l1.5-5.8l2.5-2.8l4.1-1.7l1.9-2.5l1.3-3.3
		l2.5-2.6l3.1,0.6l0.9,1.2l3.9-2.8l7.6-14.1l1.7-3.2l2.5-1.9l1.3-1.9l1.1-2.1l16.7-4.6l16.8-2.3l-1.4,9.6l4.9-1.2l4.8,0.4l2.7,1.5
		l1.2-1.1l1.1-1.3l3.2-2.2l-0.9-9.7l3-3.7l8.1-2.7l6,6.4v4.3l2,2.7l5.2-1.2l5.2-3l3.2-2.4l3.8,0.8l3.1-1.7l3.7-2.8l8.8,3.1l9,1.5
		l2.9,0.8L397,296l-4.6,3.3l-2.7,4.2l1.7,1.9l2.2,1.3h1.5l1.4-0.7l4.8-1.6l7.5-0.8l1.6,1.7l-0.3,2.8l3.2,3.3l1.1,2.6l2.9-0.2
		l3.4-0.6l3.8-1.2l3.8-0.1l3.7,2.9l4.2,2.7l4.1,0.8l4.1,0.5l3.2,1.4L450.7,322.2L450.7,322.2z"/>
	<path class="st0" d="M573,402.5l0.8,8.1l2.2,8.1l0.8,8.1l-0.9,16.8l-1,3.6l-4.9,6l-1.9,3.3l-0.8,3.9l-0.7,23.7l0.5,3.2l1,1.8l1,0.7
		l0.9,1l0.9,6.7l1.2,5.1l1.3,0.9l0.8,1.1l-0.6,3.1l-1.3,1.7l-1.6,0.8l-1.6,0.5l-2.6,2.2l-0.2,2.7l3.4,3.1l2.4,2.7l2.5,3.1l3.2,0.5
		l4.1-3.2l10-11l2-3.3l2.6,2.1l0.6,3.4l1.1,3.5l0.8,3.9l-2.5,3.9l-5.7,11.3l-0.4,5.1l-1.7,13.4l-4.1,11.6l0.2,7.3l-4.2,12.6
		l-3.1,6.1l-1.3,3.1l1.3,3.4l1.2,1.5h-0.1l-12.5-3l-14.8,2.6l-2.6-0.7l-2-1.4l-0.4-2.6l-0.1-2.9l-1.4-2.4l-5.6-2.4l-5.3-1.1
		l-5.5,0.8l-6.7,2.4l-5.3,4.1l0.8,2.7l1.5,2.5l-1,2h-2.4l-4.1,2.4l-3.8,3.1l-4.4,1.5l-4.7-2.2l-6.1-1.5l-5.7,2.3l-1.8,2.4l-2.2,1.9
		l-2.3,0.3l-2.2,0.8l-5.2,4.1l-5.9-0.2l-4.9-2.6l-5.2-1.6l-5.9,1.1l-5.8,0.6l-4.9-3.1l-4-4.9l-1.3-10.8l-3.7,2.9l-3.9,5.6l-4.3-0.9
		l-8.5,4.3l-4.5-0.9l-4-3l-4.3-2.1l-4.6-0.7l-4.7,0.6l-9.8-0.4l-2.5-9l1.9-4.4l0.1-4.6l-2.1-2.5l-2.4-1.5l-0.6-1.7l-0.9-1.8
		l-3.5-2.5l-2.1-4l-3-3.3l-4.1-1.3h-4.5l-4.5-0.4l-2.6-1.7l-2-1.7l-4.8-0.4l-2.6-1l-0.6-1.6l-0.2-1.6l-2.9-2.3l-3.2-1.9l-1.3-4.3
		l0.8-12.5l-6.5-11.1l3.8-1.8l4-1.4l2.4-4.8l1.4-5l1.2-2.2l1.5-1.8l0.4-3.3l-0.1-2.6l-0.9-5.3l3.9-3.3l3.8,0.7l3.3,0.2l-1.8-10.2
		l-3.5-2.7l-8.1,2l-3.1-1.5l-4.5-3.7l-3.8-1.3l-6.4,1.5l-0.9-9.3l3.5-3.1l2.3-4.5l-1.8-3.1l-1-3.4l1-4.7l0.6-10.7l1.6-4.5l2.8-2.8
		l-7.7-11.3l-6.2-1.1l-1.8-4.5l2.4-1.1l2.3-0.4l2.3-2.5l3.5-4.8l0.9-2l-0.1-1.8l0.4-2.4l4.9-3.3l5.6-2.6l3.4-5.2l6,2.7l11.3,1.7
		l-2.3-4.4l-3.1-3.9l1.1-4.1l2-4.3l1.9-3.2l2.5,1.6l3.2-0.2l2.6-3.5l2.7-1.8l2.5,1.7l4.9,1.7l4.6,0.4l1.1-3.3l0.8-3.1l1.6-2.6l2.1-2
		l2,2.3l2.7,1.9l3.7,3.2l2.4,4.8l5.6,1.8l13.3-5.5l2.3-7.8l-2.1-1.9l-1.1-2l2-3.7l1.7-3.7l3.4-5l4.9-3.5l1.4-2.5l2-1.6l3.2-1.1
		l2.7-2.5l4-3.4l3.7-3.9l1.5-0.9l1.9,0.7l2.1-1.3l1.9-2.2l4.1,2.2l3.9,1.6l4.7,1.1l4.1,0.3l0.9-4.2l0.5-4.5l-1-4.9l2.8-3.5l4.3-2.1
		l4.4,0.4l2.2,3.9l3,0.7l2.8,1.4L487,318l0.4,3.5l4.7-1.9l4.5-3.5l1.9,0.8l1.4,1.8l1.7,0.2l2.1-0.8l6.2,1l5.8,2.7l4.2-1.1l4.3-2.2
		l5.4,1.2l4.9,3l1.6,4.6l-3.8,2.8l-4.6-1.8l-3,1.1l-2.7,2l-1.1,4.9l0.7,6.5l3.3,4.9l5.2,2.5l1.1,4.2l1.5,3.6l3.7,1.6l3.4,1.9
		l11.6,0.9l-0.7,4.5l1.4,1.3l1.2,1.5l-1.7,4.9l-2.1,5.3l0.4,5.5l1.4,4.9l0.5,4.4l-1.7,4.7l10.9,4.1l5.1-2.3l5.3,1.2L573,402.5
		L573,402.5z M467.6,550.7l0.9-3.1l-0.1-3.3l-0.3-3.1l-1.7-1.4l-1.3-2l-0.1-4.9l0.8-1.3l0.1-1.6l-2-3.5l-6.4-4.6l-8.3,0.5l-10.1,1.4
		l-7.4,6.2l1,8.9l-2.8,3l-1.7,3.8l1.5,0.3l1.4,0.5l-0.3,1.9l-0.6,1.9l-2.6,0.4h-2.4l-2.1,3.1l0.9,3.6l2.5,0.9l2.3,2.3l1.8,3.6
		l2.8,2.3l2,1.3l1.4,1.2l1.3-1l2.2-4l2.3-1.8l5.1,0.5l9.1,2.4l3.6-2.1l0.4-1.9v-1.2l1.5-3.9l0.2-1.7V553l1.5-0.1l1.1,0.4
		L467.6,550.7L467.6,550.7z"/>
	<polygon class="st0" points="467.6,550.7 468.5,547.6 468.4,544.3 468.1,541.2 466.4,539.8 465.1,537.8 465,532.9 465.8,531.6 
		465.9,530 463.9,526.5 457.5,521.9 449.2,522.4 439.1,523.8 431.7,530 432.7,538.9 429.9,541.9 428.2,545.7 429.7,546 431.1,546.5 
		430.8,548.4 430.2,550.3 427.6,550.7 425.2,550.7 423.1,553.8 424,557.4 426.5,558.3 428.8,560.6 430.6,564.2 433.4,566.5 
		435.4,567.8 436.8,569 438.1,568 440.3,564 442.6,562.2 447.7,562.7 456.8,565.1 460.4,563 460.8,561.1 460.8,559.9 462.3,556 
		462.5,554.3 462.5,553 464,552.9 465.1,553.3 467.6,550.7 	"/>
</g>
<g id="1">
	<g>
		<path id="KOR2495" class="st0" d="M122.6,226.7l1,2.4l-0.8,0.4l-1.4,1l-0.5,0.7l-2.8,0.6l-1.2-0.2l-5.4,2.4l-2,1.8l-1.1,2
			l-6.9,5.2l-1.5-0.3h-2.1l-0.7-2.5l-1.2-0.8l-0.6,0.7l-0.8-1.9l-1-0.2l-1.6,1.7l-1.2-0.6l-1.7-0.4l1-1l-0.3-1.1l-1.7-1.6l-0.5-1.1
			l0.6-1.5l1-0.2l1.3,0.6l7.2-5l5.1-0.6l3.5,0.1l3.2-1.7l1.1-4.5l2.2-0.8l1.9,1.9l2.7,1.2l1.8,0.2l1.3,0.7l1.2,1.6L122.6,226.7
			L122.6,226.7z M145.3,251.7l-0.4-1.4l-8.3-1l-3.9,4.9l-4-3l1.6-3.7l2.1-3.1l-1.3-2.3l-5.4-2.9l0.3-3.6l-0.5-2.9l1.6-2.7l4.5-1.3
			l1.4-0.7l0.3-1.7l-2.1-0.6l-0.6,1.8l-3.3,0.3l-0.8-2l-0.4-3.6l0.8-4.9l15.3-0.5l9.4,9l-0.1,4.7l1.7,3.9l2.6,1.7l1.5,2.4l-1.5,5
			l-2.2,4.3l-3.3,2.4L145.3,251.7L145.3,251.7z"/>
		<path id="KOR2496" class="st0" d="M573,402.5l-1.6-0.1l-5.3-1.2l-5.1,2.3l-10.9-4.1l1.7-4.7l-0.5-4.4l-1.4-4.9l-0.4-5.5l2.1-5.3
			l1.7-4.9l-1.2-1.5l-1.4-1.3l0.7-4.5l-11.6-0.9l-3.4-1.9l-3.7-1.6l-1.5-3.6l-1.1-4.2l-5.2-2.5l-3.3-4.9l-0.7-6.5l1.1-4.9l2.7-2
			l3-1.1l4.6,1.8l3.8-2.8l-1.6-4.6l-4.9-3l-5.4-1.2l-4.3,2.2l-4.2,1.1l-5.8-2.7l-6.2-1l-2.1,0.8l-1.7-0.2l-1.4-1.8l-1.9-0.8
			l-4.5,3.5l-4.7,1.9L487,318l0.4-3.4l-2.8-1.4l-3-0.7l-2.2-3.9l-4.4-0.4l-4.3,2.1l-2.8,3.5l1,4.9l-0.5,4.5l-0.9,4.2l-4.1-0.3
			l-4.7-1.1l-3.9-1.6l-4.1-2.2l-3.1-2l-3.2-1.4l-4.1-0.5l-4.1-0.8l-4.2-2.7l-3.7-2.9l-3.8,0.1l-3.8,1.2l-3.4,0.6l-2.9,0.2l-1.1-2.6
			l-3.2-3.3l0.3-2.8l-1.6-1.7l-7.5,0.8l-4.8,1.6l-1.4,0.7h-1.5l-2.2-1.3l-1.7-1.9l2.7-4.2l4.6-3.3l1.8-4.2l-2.9-0.8l-9-1.5l-8.8-3.1
			l-3.7,2.8l-3.1,1.7l-3.8-0.8l-3.2,2.4l-5.2,3l-5.2,1.2l-2-2.7v-4.3l-6-6.4l-8.1,2.7l-3,3.7l0.9,9.7l-3.2,2.2l-1.1,1.3l-1.2,1.1
			l-2.7-1.5l-4.8-0.4l-4.9,1.2l1.4-9.6l-16.8,2.3l-16.7,4.6l8.5-15.9l7.1-17.4l9.7-20.8l1.2-4.5l-0.9-4.5l2.1-3.6l2.9-3.6l3.2-1.3
			l1.6-3.5l-1.8-3.1l-2.3-2l-3.8-0.4l-3.9-1.5l-5.3-0.7l-8.9-4.9l-4-1.7l-4-2.6l-4.3-0.7l-4.3,1.4l-3.5-3l0.3-3.3l1.7-3.4l0.6-3.9
			l0.1-4.1l-4.2,1.4l-1.9-2.4l4.6-5.5l-0.8-3.6l-1.2-3.6l0.9-2.7l-0.1-3.3l-0.3-3.1l8.1-5.9l3.2-1.1l1.8-2.8l0.8-8.1l-3.7-5.8
			l-3.1-0.6l-2.9-1.3l-2.2-6l-3.5-0.1l-3.8,0.2l-4-3l-2-5.3l-0.8-9.5l-1.5-4.7l-1.1-1l-1.2,0.3l-0.9,0.8l-1,0.1l-2.7-1.9l-6.6,2.3
			l-6.1-1.4l-2.4-1.5l-2.5-2.3l-0.1-3.8l1.2-3.6l1.6-2.6l-1.1-0.9l-1.3-0.3l-1.3,0.2l-1.1,0.9l-2.1,2.7l-2.4,2.4l-3.6,0.6l-3.1-2.1
			l-0.6-2l-0.3-2l-1.1-0.7l-1.2,1.3l-0.4,2l-0.1,6.6l-2,3.3l-5.8-2.8l-5.3-4.8l-1.9-2l-2,0.3l-1.7-2.6l-1.1-3.3l-1.5-1.7l-1.7-1.4
			l-1.3-3.2l-7.9-5l-3.2-1.6l1-1.1l8.6-7.2l10.1-6.3l10.6-4.4l10.2-1.1l5.1,0.6l19.5-1.7l15,4.5l4.8-0.4l9.3-2.8l30.5-2.7l1.3,0.9
			l2,2.9l1.9,2l2.2,0.5l10.5-2.2l16.6,1l10.8-0.9l10.8-3.8l10.1-6.6l8.4-8.8l3.7-5.3l3.1-5.6l2-6.3l0.7-7.1l-1.3-7l-0.4-3.5l1-2.6
			l4.3-3.4l9-4.7l12.1,24l1.5,6.4l3.7,9.7l14,27.7l10.9,29.1l1.8,3.1l5.6,7.1l2.2,5.9l26.4,37.8l10.2,14.9l12.3,13.6l1.7,1.4
			l8.2,9.7l0.5,4.1v4.9l1,4.2l5.6,3.1l1.6,3.4l4.6,15.1l2.1,3.4l2.5,1.5l2,2.2l7.2,14.2l4.4,5.4l1.5,3l0.5,3.2l1.1,3.1l7.7,8.4
			l2.4,6.9l2.2,15.1l2.9,8.2l8.2,11.4l0.6,2.3l-1,2.3l-1.4,2.2l-1,2.2v1.9l1.1,6.2l1.4,17.7l1.5,8.2l5.2,16.6l0.5,8.2l-1.7,7.5
			l-3.5,6.9L573,402.5L573,402.5z"/>
		<path id="KOR2497" class="st0" d="M209.4,211.4l-1.5,5.7l4.4-0.1l3.7-1.3l3.2-0.1l1.2,2.9l-0.4,3l-2.2,1.1l-2.4,1.6v3.6l1.3,1.5
			L214,233l-1.5,2.6l-4.1,2.4l-4.5,1.1l-4.7,2.3l-1.8-4.1l-3.9,0.9l-4,1.2l-2.7,1.6l-2.9,0.5l-6.8-0.3l-4.7-6.1l-4.6-1.4l-3.1-2
			l-0.8-5.8l-3.2-4.4l-3.7-4.6l2.3-5.1l4.5,0.2l5,3.1l3.8-1.2l3.4-2.1l0.2-3.4l0.9-3.2l7.1-0.7l3.7-4.6l2.2-4.8l3.2-3.3l4.9-1.2
			l5.7,0.4l2.7,4.7l1.1,6.4l1.6,4.4L209.4,211.4L209.4,211.4z"/>
		<path id="KOR2498" class="st0" d="M56.6,280.6l-0.7,1.2l-2,2.1l-1.4,0.6l-1.9,0.3l-1.6-0.7l-1.4-2.9l-1.5,0.8l-0.7-0.2l0.5-4
			l0.9-2.7l1.1-1.6l1.3,0.9l1.1,1.9l1.2,0.9l3.9,2.1L56.6,280.6L56.6,280.6z M107,278.7l-1.3,1.6l-1.8,0.4l-1.2-0.9l-1.3,0.1
			l-1.1-0.6l-0.3-2.5l0.3-2.6l1.3-1.8l2.8-1.5l3.6,0.3l1.6,1.1l0.6,2.4l-0.7,0.9l-1.7,0.5l-0.6,1.3L107,278.7L107,278.7z
			 M122.2,271.2l0.6,1.6l1.9,1.1l3,1.2l0.8,0.9l0.8,2.6l-0.8,1.8l-8.1,6.5l-3.7,0.4l0.1-1l1.7-2.3l0.2-1.4l-0.7-1.1l2-2.4l0.1-2.4
			l-0.8-2.9l-1.2-2l-1.2-1.4l0.4-0.4l2.6,1.3l2.2-2l0.5,0.2L122.2,271.2L122.2,271.2z M89.9,195.5l-3.2,0.2L76,187.3l1.4-1.2
			l0.6-1.6l0.9-3.8l1.3-2l0.9-0.7l0.9-0.3l0.6,0.4l0.6,1.4l0.5,3.7l1,2l1,1.1l4.1,3.4l1.5,1.8l0.3,1.9L89.9,195.5L89.9,195.5z
			 M75.1,164.9l3,1.8l3.1-0.1l2.9,0.5l1.5,1.6l-1.1,3.6l-2.8,2.4l-3.4,0.3l-6.6-1.5l-3.3,1.6h-1.5l-0.6-2.2l0.3-0.7l1.8-5.5l2-1.9
			l2.2-0.6L75.1,164.9L75.1,164.9z M115.1,202.2l-1.8,4.2l-1.6,1.4l-1.2,0.2l-0.9-0.5l-1.7-1.8l-1.2-0.7l-0.8,0.3l-1.3,1l-8.3,0.5
			l-3.1-1.5l-3.3-4.3l4.9-1.3l1.2-0.8l1.3-2.1l-0.2-0.9l-0.9-0.6l-0.8-1.1l-5.6-10.8l-0.4-1.7l0.6-2.1l-0.1-9.5l0.6-2.2l1.6-0.5
			l3.7-4.4l2.9-0.7l2.5,1.8l2.4,2.8l2.4,2.2l5.1,2.6l2,2l0.8,3.2l-0.2,1.7l-0.8,2.7l-0.2,1.2l0.4,1.3l1.4,2.7l0.4,1.5l0.5,7.2
			l-0.5,1.7l0.8,1.1l1.4,3L115.1,202.2L115.1,202.2z M285.7,300.6l-1.1,2.1l-1.3,1.9l-2.5,1.9l-1.7,3.2l-7.6,14.1l-3.9,2.8l-0.9-1.2
			l-3.1-0.6l-2.5,2.6l-1.3,3.3l-1.9,2.5l-4.1,1.7l-2.5,2.8l-1.5,5.8l-5.2,1.8l-6.8,3.3l-7.1,2l-7.4-1l-6.1-5.1l-6.9-3.1l-13.1,5.6
			H191l-7.5-1.5l2.1-1.6l2.4-1.1l1.7-1.9l1-4.8l-0.3-0.9l-1.7-2l0.8-0.8h1.7l2.2-1.3l1.4-0.2l1-0.7l0.5-2.3l-9.5,2.7l-1.4,2l0.5,6.1
			l-1.2,1.4l-3.7,1.2l-5.2-0.7l-6.2-3.6l-5.6-5.6l-2.2-5.3l9.5-1v-1.2l-2.1-1.5l1.7-0.2l1.7,0.1l1.6,0.5l1.3,1.1l-0.6-3.8l-2.2-3.4
			l-1.6-3.8l1.2-5.3l-1.8-0.8l-1.4,1.8l-0.8,3.2L168,315l-0.8,3.5l-1.5,0.8l-1.5-1.5l-3,0.6l-3,0.8l-7.3-2.2v-2.3l-0.7-1.9l0.6-2.7
			l-0.3-3.4l1.8-3.4l2.2-3l2.5-1.2l2.7-1l4-0.1l4.3-1.2l0.9-1.3l0.3-3.7l-1-0.7l-2.2,1.2l-3.3,2.9l-2.1-0.5l-1.5-0.9l-0.8-1.5v-2.4
			l-3.7,1.9l-3.1,2.2l-5.6,6.1l-1.5,1.2l-1.8,0.6h-1.7l-1-1.1V299l1-1.8l2.3-3.3l-4.6,1.1l-1.4-0.5l-0.6-2.7l0.9-2l1.9-1.1l2.2-0.8
			l1.6-0.9l1.9-2.6l-0.5-0.7l-4.2,0.6l-1.4-0.9l-1.1-2.1l-1.1-2.7l-1.2-2.5l0.7-0.2l1.4-1.2l1.2,0.9l1.7-0.1l3.1-0.8l2.5,0.7
			l2.1,1.3l2.1,0.6l2.4-1.2l-0.2,2.3l0.2,2.1l0.8,1.7l1.5,0.7l1.7-0.6l0.7-1.9l0.8-4.3l2.7-4l2.2,0.4l2.5,1.5l3.5-0.6l-0.8-1.6
			l-1-1.2l-1.2-0.8l-1.5-0.4h-2.2l-1-1.5l-2.3-0.4l-1.9,0.6l-1.9-0.1l-3-0.6l-5-1.6l-6.9-5.2l-0.3-2.3l3-4.5l2.1-2.1l5-1.5l3.3-2.4
			l2.2-4.3l1.5-5l-1.5-2.4l-2.6-1.7l-1.7-3.9l0.1-4.7l-9.4-9l-15.3,0.5l-2-4.7l-3-5.1l-1.8-1.8L120,203l-0.6-4l-1.7-6.3l-2.3-16.5
			l0.6-2.7l2.1-0.4l8.7,3.2l2.8-0.6l2.3-1.1l2.1-0.4l2.1,1.4l0.8,2.4l0.3,3.6l-0.2,3.8l-0.9,2.6l-0.1,4.7l4.9,4.1l6.2,2.6l3.8,0.2
			l-3-3.1l-9.1-6.6l2.6-7.1l0.8-4.2l-0.6-3l-1.5-3.1l-0.3-4.1l0.7-4l1.6-3.2l-1.2-1.5l-1.5,0.2l-2.4,1.7l-1.1-17.3l0.8-4.7l1.9-1.4
			l3-0.4l4-1.5l6.3-5.1l13.6-20.7l2.7-2.8l6.1-4.7l2.6-3.1l5.4-13.3l1.9-2.5l3.2,1.6l7.9,5l1.3,3.2l1.7,1.4l1.5,1.7l1.1,3.3l1.7,2.6
			l2-0.3l1.9,2l5.3,4.8l5.8,2.8l2-3.3l0.1-6.6l0.4-2l1.2-1.3l1.1,0.7l0.3,2l0.6,2l3.1,2.1l3.6-0.6l2.4-2.4l2.1-2.7l1.1-0.9l1.3-0.2
			l1.3,0.3l1.1,0.9l-1.6,2.6l-1.2,3.6l0.1,3.8l2.5,2.3l2.4,1.5l6.1,1.4l6.6-2.3l2.7,1.9l1-0.1l0.9-0.8l1.2-0.3l1.1,1l1.5,4.7
			l0.8,9.5l2,5.3l4,3l3.8-0.2l3.5,0.1l2.2,6l2.9,1.3l3.1,0.6l3.7,5.8l-0.8,8.1l-1.8,2.8l-3.2,1.1l-8.1,5.9l0.3,3.1l0.1,3.3l-0.9,2.7
			l1.2,3.6l0.8,3.6l-4.6,5.5l1.9,2.4l4.2-1.4l-0.1,4.1l-0.6,3.9l-1.7,3.4l-0.3,3.3l3.5,3l4.3-1.4l4.3,0.7l4,2.6l4,1.7l8.9,4.9
			l5.3,0.7l3.9,1.5l3.8,0.4l2.3,2l1.8,3.1l-1.6,3.5l-3.2,1.3l-2.9,3.6l-2.1,3.6l0.9,4.5l-1.2,4.5l-9.7,20.8l-7.1,17.4L285.7,300.6
			L285.7,300.6z M209.4,211.4l-0.1-4.9l-1.6-4.4l-1.1-6.4l-2.7-4.7l-5.7-0.4l-4.9,1.2l-3.2,3.3l-2.2,4.8l-3.7,4.6l-7.1,0.7l-0.9,3.2
			l-0.2,3.4l-3.4,2.1l-3.8,1.2l-5-3.1l-4.5-0.2l-2.3,5.1l3.7,4.6l3.2,4.4l0.8,5.8l3.1,2l4.6,1.4l4.7,6.1l6.8,0.3l2.9-0.5l2.7-1.6
			l4-1.2l3.9-0.9l1.8,4.1l4.7-2.3l4.5-1.1l4.1-2.4l1.5-2.6l2.7-3.7l-1.3-1.5v-3.6l2.4-1.6l2.2-1.1l0.4-3l-1.2-2.9l-3.2,0.1l-3.7,1.3
			l-4.4,0.1L209.4,211.4L209.4,211.4z"/>
	</g>
	<polygon class="st0" points="613.4,234.5 610.4,236.1 606.4,235.3 602.5,232.9 599.9,229.8 599,225.7 600.4,222.7 603.2,220.8 
		608.8,219.8 612.6,218.4 614.5,218 617.2,220.1 617,225.1 615.3,230.8 613.4,234.5 	"/>
</g>
</svg>
